<?xml version="1.0" encoding="utf-8"?>
<!-- Generator: Adobe Illustrator 17.0.0, SVG Export Plug-In . SVG Version: 6.00 Build 0)  -->
<!DOCTYPE svg PUBLIC "-//W3C//DTD SVG 1.1//EN" "http://www.w3.org/Graphics/SVG/1.1/DTD/svg11.dtd">
<svg version="1.1" id="Layer_1" xmlns="http://www.w3.org/2000/svg" xmlns:xlink="http://www.w3.org/1999/xlink" x="0px" y="0px"
	 width="94.824px" height="12.694px" viewBox="0 0 94.824 12.694" enable-background="new 0 0 94.824 12.694" xml:space="preserve">
<path fill="#FCFDFE" d="M197.279,951.228"/>
<path fill="#FCFDFE" d="M197.279-324.396"/>
<path fill="none" d="M197.279-324.396"/>
<path fill="none" d="M197.279,951.228"/>
<polygon points="232.667,-255.489 238.063,-255.489 238.063,-244.972 240.672,-244.972 240.672,-255.489 246.048,-255.489 
	246.048,-257.667 232.667,-257.667 "/>
<polygon points="253.896,-257.666 247.932,-244.972 250.757,-244.972 255.311,-255.029 259.9,-244.972 262.745,-244.972 
	256.721,-257.666 "/>
<path d="M276.332-251.163c-0.438-0.281-0.961-0.51-1.57-0.687c-0.608-0.176-1.285-0.316-2.031-0.421
	c-0.797-0.118-1.464-0.236-2.001-0.353c-0.536-0.118-0.961-0.242-1.275-0.373c-0.314-0.131-0.537-0.285-0.667-0.461
	c-0.131-0.177-0.196-0.383-0.196-0.619c0-0.601,0.271-1.026,0.814-1.274c0.543-0.249,1.233-0.374,2.07-0.374
	c0.902,0,1.651,0.17,2.247,0.511c0.594,0.34,0.918,0.896,0.971,1.667h2.55c0.026-1.36-0.454-2.429-1.442-3.208
	c-0.988-0.778-2.397-1.167-4.228-1.167c-1.217,0-2.243,0.157-3.08,0.471c-0.838,0.314-1.469,0.752-1.894,1.314
	c-0.425,0.563-0.638,1.217-0.638,1.962c0,0.602,0.141,1.122,0.422,1.56c0.281,0.439,0.668,0.808,1.158,1.109
	c0.491,0.301,1.056,0.546,1.697,0.736c0.641,0.19,1.321,0.336,2.041,0.441c0.915,0.131,1.654,0.258,2.217,0.383
	c0.562,0.124,0.974,0.281,1.236,0.47c0.261,0.19,0.392,0.462,0.392,0.815c0,0.366-0.105,0.68-0.314,0.942
	c-0.209,0.262-0.529,0.464-0.961,0.608c-0.432,0.144-0.981,0.216-1.648,0.216c-0.733,0-1.393-0.101-1.982-0.305
	c-0.588-0.202-1.063-0.483-1.422-0.843c-0.36-0.36-0.566-0.762-0.618-1.207h-2.649c-0.027,0.327,0.03,0.694,0.167,1.099
	s0.369,0.811,0.696,1.217c0.327,0.405,0.752,0.778,1.275,1.118c0.523,0.34,1.145,0.611,1.865,0.814
	c0.718,0.203,1.549,0.304,2.491,0.304c1.321,0,2.397-0.157,3.228-0.471c0.83-0.314,1.445-0.755,1.844-1.324
	c0.399-0.569,0.599-1.239,0.599-2.011c0-0.628-0.118-1.158-0.354-1.59C277.107-250.524,276.77-250.88,276.332-251.163"/>
<polygon points="295.02,-257.666 291.312,-257.666 284.562,-251.66 284.562,-257.666 281.953,-257.666 281.953,-244.972 
	284.562,-244.972 284.562,-251.625 292.156,-244.972 295.923,-244.972 288.022,-251.694 "/>
<rect x="300.062" y="-257.666" width="2.609" height="12.694"/>
<polygon points="308.008,-244.972 310.617,-244.972 310.617,-250.034 318.622,-250.034 318.622,-252.075 310.617,-252.075 
	310.617,-255.489 320.388,-255.489 320.388,-257.666 308.008,-257.666 "/>
<rect x="324.882" y="-257.666" width="2.609" height="12.694"/>
<path fill="none" d="M197.279-324.396"/>
<path fill="none" d="M197.279,951.228"/>
<path fill="none" d="M197.279-324.396"/>
<path fill="none" d="M197.279,951.228"/>
<path fill="none" d="M197.279-324.396"/>
<path fill="none" d="M197.279,951.228"/>
<path fill="none" d="M197.279-324.396"/>
<path fill="none" d="M197.279,951.228"/>
<path fill="none" d="M197.279-324.396"/>
<path fill="none" d="M197.279,951.228"/>
<path fill="none" d="M197.279-324.396"/>
<path fill="none" d="M197.279,951.228"/>
<path fill="none" d="M197.279-324.396"/>
<path fill="none" d="M197.279,951.228"/>
<path fill="none" d="M197.279-324.396"/>
<path fill="none" d="M197.279,951.228"/>
<path fill="none" d="M197.279-324.396"/>
<path fill="none" d="M197.279,951.228"/>
<path fill="none" d="M197.279-324.396"/>
<path fill="none" d="M197.279,951.228"/>
<path fill="none" d="M197.279,951.228"/>
<path fill="none" d="M197.279-324.392"/>
<g>
	<path fill="#FCFDFE" d="M-35.388,1208.894"/>
	<path fill="#FCFDFE" d="M-35.388-66.73"/>
	<path fill="none" d="M-35.388-66.73"/>
	<path fill="none" d="M-35.388,1208.894"/>
	<polygon points="0,2.178 5.396,2.178 5.396,12.695 8.005,12.695 8.005,2.178 13.381,2.178 13.381,0 0,0 	"/>
	<polygon points="21.229,0 15.265,12.694 18.09,12.694 22.644,2.637 27.233,12.694 30.078,12.694 24.054,0 	"/>
	<path d="M43.665,6.504c-0.438-0.281-0.961-0.51-1.57-0.687c-0.608-0.176-1.285-0.316-2.031-0.421
		C39.267,5.278,38.6,5.16,38.063,5.043c-0.536-0.118-0.961-0.242-1.275-0.373c-0.314-0.131-0.537-0.285-0.667-0.461
		c-0.131-0.177-0.196-0.383-0.196-0.619c0-0.601,0.271-1.026,0.814-1.274c0.543-0.249,1.233-0.374,2.07-0.374
		c0.902,0,1.651,0.17,2.247,0.511c0.594,0.34,0.918,0.896,0.971,1.667h2.55c0.026-1.36-0.454-2.429-1.442-3.208
		c-0.988-0.778-2.397-1.167-4.228-1.167c-1.217,0-2.243,0.157-3.08,0.471c-0.838,0.314-1.469,0.752-1.894,1.314
		c-0.425,0.563-0.638,1.217-0.638,1.962c0,0.602,0.141,1.122,0.422,1.56c0.281,0.439,0.668,0.808,1.158,1.109
		c0.491,0.301,1.056,0.546,1.697,0.736c0.641,0.19,1.321,0.336,2.041,0.441c0.915,0.131,1.654,0.258,2.217,0.383
		c0.562,0.124,0.974,0.281,1.236,0.47c0.261,0.19,0.392,0.462,0.392,0.815c0,0.366-0.105,0.68-0.314,0.942
		c-0.209,0.262-0.529,0.464-0.961,0.608c-0.432,0.144-0.981,0.216-1.648,0.216c-0.733,0-1.393-0.101-1.982-0.305
		c-0.588-0.202-1.063-0.483-1.422-0.843c-0.36-0.36-0.566-0.762-0.618-1.207h-2.649c-0.027,0.327,0.03,0.694,0.167,1.099
		s0.369,0.811,0.696,1.217c0.327,0.405,0.752,0.778,1.275,1.118c0.523,0.34,1.145,0.611,1.865,0.814
		c0.718,0.203,1.549,0.304,2.491,0.304c1.321,0,2.397-0.157,3.228-0.471c0.83-0.314,1.445-0.755,1.844-1.324
		c0.399-0.569,0.599-1.239,0.599-2.011c0-0.628-0.118-1.158-0.354-1.59C44.44,7.142,44.103,6.786,43.665,6.504"/>
	<polygon points="62.353,0 58.645,0 51.895,6.006 51.895,0 49.286,0 49.286,12.694 51.895,12.694 51.895,6.041 59.489,12.694 
		63.256,12.694 55.355,5.972 	"/>
	<rect x="67.395" y="0" width="2.609" height="12.694"/>
	<polygon points="75.342,12.695 77.951,12.695 77.951,7.633 85.956,7.633 85.956,5.592 77.951,5.592 77.951,2.178 87.722,2.178 
		87.722,0.001 75.342,0.001 	"/>
	<rect x="92.215" y="0" width="2.609" height="12.694"/>
	<path fill="none" d="M-35.388-66.73"/>
	<path fill="none" d="M-35.388,1208.894"/>
	<path fill="none" d="M-35.388-66.73"/>
	<path fill="none" d="M-35.388,1208.894"/>
	<path fill="none" d="M-35.388-66.73"/>
	<path fill="none" d="M-35.388,1208.894"/>
	<path fill="none" d="M-35.388-66.73"/>
	<path fill="none" d="M-35.388,1208.894"/>
	<path fill="none" d="M-35.388-66.73"/>
	<path fill="none" d="M-35.388,1208.894"/>
	<path fill="none" d="M-35.388-66.73"/>
	<path fill="none" d="M-35.388,1208.894"/>
	<path fill="none" d="M-35.388-66.73"/>
	<path fill="none" d="M-35.388,1208.894"/>
	<path fill="none" d="M-35.388-66.73"/>
	<path fill="none" d="M-35.388,1208.894"/>
	<path fill="none" d="M-35.388-66.73"/>
	<path fill="none" d="M-35.388,1208.894"/>
	<path fill="none" d="M-35.388-66.73"/>
	<path fill="none" d="M-35.388,1208.894"/>
	<path fill="none" d="M-35.388,1208.894"/>
	<path fill="none" d="M-35.388-66.726"/>
</g>
<polygon points="-12.095,30.185 -6.699,30.185 -6.699,40.702 -4.09,40.702 -4.09,30.185 1.286,30.185 1.286,28.007 -12.095,28.007 
	"/>
<polygon points="9.134,28.008 3.17,40.702 5.995,40.702 10.549,30.645 15.138,40.702 17.983,40.702 11.959,28.008 "/>
<path d="M31.57,34.512c-0.438-0.281-0.961-0.51-1.57-0.687c-0.608-0.176-1.285-0.316-2.031-0.421
	c-0.797-0.118-1.464-0.236-2.001-0.353c-0.536-0.118-0.961-0.242-1.275-0.373c-0.314-0.131-0.537-0.285-0.667-0.461
	c-0.131-0.177-0.196-0.383-0.196-0.619c0-0.601,0.271-1.026,0.814-1.274c0.543-0.249,1.233-0.374,2.07-0.374
	c0.902,0,1.651,0.17,2.247,0.511c0.594,0.34,0.918,0.896,0.971,1.667h2.55c0.026-1.36-0.454-2.429-1.442-3.208
	c-0.988-0.778-2.397-1.167-4.228-1.167c-1.217,0-2.243,0.157-3.08,0.471c-0.838,0.314-1.469,0.752-1.894,1.314
	C21.413,30.101,21.2,30.755,21.2,31.5c0,0.602,0.141,1.122,0.422,1.56c0.281,0.439,0.668,0.808,1.158,1.109
	c0.491,0.301,1.056,0.546,1.697,0.736c0.641,0.19,1.321,0.336,2.041,0.441c0.915,0.131,1.654,0.258,2.217,0.383
	c0.562,0.124,0.974,0.281,1.236,0.47c0.261,0.19,0.392,0.462,0.392,0.815c0,0.366-0.105,0.68-0.314,0.942
	c-0.209,0.262-0.529,0.464-0.961,0.608c-0.432,0.144-0.981,0.216-1.648,0.216c-0.733,0-1.393-0.101-1.982-0.305
	c-0.588-0.202-1.063-0.483-1.422-0.843c-0.36-0.36-0.566-0.762-0.618-1.207h-2.649c-0.027,0.327,0.03,0.694,0.167,1.099
	s0.369,0.811,0.696,1.217c0.327,0.405,0.752,0.778,1.275,1.118c0.523,0.34,1.145,0.611,1.865,0.814
	c0.718,0.203,1.549,0.304,2.491,0.304c1.321,0,2.397-0.157,3.228-0.471c0.83-0.314,1.445-0.755,1.844-1.324
	c0.399-0.569,0.599-1.239,0.599-2.011c0-0.628-0.118-1.158-0.354-1.59C32.345,35.15,32.008,34.794,31.57,34.512"/>
<polygon points="50.258,28.008 46.55,28.008 39.8,34.014 39.8,28.008 37.191,28.008 37.191,40.702 39.8,40.702 39.8,34.049 
	47.394,40.702 51.161,40.702 43.26,33.98 "/>
<rect x="55.301" y="28.008" width="2.609" height="12.694"/>
<polygon points="63.247,40.702 65.856,40.702 65.856,35.64 73.861,35.64 73.861,33.599 65.856,33.599 65.856,30.185 75.627,30.185 
	75.627,28.008 63.247,28.008 "/>
<rect x="80.121" y="28.008" width="2.609" height="12.694"/>
</svg>
